<?xml version="1.0" encoding="UTF-8"?><svg id="Layer_2" xmlns="http://www.w3.org/2000/svg" viewBox="0 0 4404.63 4500"><defs><style>.cls-1{fill:#fb4e51;}.cls-2{fill:#f98d30;}.cls-3{fill:#fb8e31;}.cls-4{fill:#face3f;}.cls-5{fill:#040202;}.cls-6{fill:#ecbd3b;}.cls-7{fill:#f74d50;}.cls-8{fill:#e93942;}.cls-9{fill:#eea235;}.cls-10{fill:#9ee356;}.cls-11{fill:#8e2b2b;}.cls-12{fill:#84b743;}.cls-13{fill:#e43840;}.cls-14{fill:#781d1d;}</style></defs><g id="Layer_1-2"><g><path class="cls-5" d="M2653.47,2775.91c-31.59,.04-33.97-3.61-33.9,16.72,120.93-.02,241.83-.02,362.76-.02,1.64,0,3.25,0,4.83-.02,.87-.02,1.75-.02,2.6-.04,1.2,0,2.4-.02,3.58-.06,1.18-.02,2.34-.04,3.49-.08,3.43-.1,6.75-.25,9.92-.46,2.14-.12,4.19-.27,6.2-.44,3.01-.25,5.88-.54,8.65-.89,.92-.12,1.81-.25,2.71-.37,2.77-.39,5.44-.85,7.97-1.37,.7-.12,1.4-.27,2.1-.44,.79-.17,1.53-.35,2.27-.54,.9-.21,1.79-.44,2.67-.69,.39-.1,.79-.21,1.16-.33,.59-.17,1.18-.33,1.77-.52,.9-.27,1.77-.56,2.62-.87,.09-.02,.17-.04,.26-.08,.76-.27,1.53-.56,2.27-.85,.66-.25,1.29-.52,1.92-.79,.94-.42,1.86-.83,2.75-1.27,.55-.27,1.07-.54,1.59-.81,.68-.35,1.33-.73,1.97-1.1,.2-.1,.37-.21,.55-.33,.68-.39,1.33-.81,1.99-1.25,.83-.56,1.66-1.14,2.42-1.72,.57-.44,1.09-.85,1.64-1.31,.07-.04,.11-.1,.17-.15-136.3-.02-272.63-.04-408.94,.08Zm0,0c-31.59,.04-33.97-3.61-33.9,16.72,120.93-.02,241.83-.02,362.76-.02,1.64,0,3.25,0,4.83-.02,.87-.02,1.75-.02,2.6-.04,1.2,0,2.4-.02,3.58-.06,1.18-.02,2.34-.04,3.49-.08,3.43-.1,6.75-.25,9.92-.46,2.14-.12,4.19-.27,6.2-.44,3.01-.25,5.88-.54,8.65-.89,.92-.12,1.81-.25,2.71-.37,2.77-.39,5.44-.85,7.97-1.37,.7-.12,1.4-.27,2.1-.44,.79-.17,1.53-.35,2.27-.54,.9-.21,1.79-.44,2.67-.69,.39-.1,.79-.21,1.16-.33,.59-.17,1.18-.33,1.77-.52,.9-.27,1.77-.56,2.62-.87,.09-.02,.17-.04,.26-.08,.76-.27,1.53-.56,2.27-.85,.66-.25,1.29-.52,1.92-.79,.94-.42,1.86-.83,2.75-1.27,.55-.27,1.07-.54,1.59-.81,.68-.35,1.33-.73,1.97-1.1,.2-.1,.37-.21,.55-.33,.68-.39,1.33-.81,1.99-1.25,.83-.56,1.66-1.14,2.42-1.72,.57-.44,1.09-.85,1.64-1.31,.07-.04,.11-.1,.17-.15-136.3-.02-272.63-.04-408.94,.08Zm0,0c-31.59,.04-33.97-3.61-33.9,16.72,120.93-.02,241.83-.02,362.76-.02,1.64,0,3.25,0,4.83-.02,.87-.02,1.75-.02,2.6-.04,1.2,0,2.4-.02,3.58-.06,1.18-.02,2.34-.04,3.49-.08,3.43-.1,6.75-.25,9.92-.46,2.14-.12,4.19-.27,6.2-.44,3.01-.25,5.88-.54,8.65-.89,.92-.12,1.81-.25,2.71-.37,2.77-.39,5.44-.85,7.97-1.37,.7-.12,1.4-.27,2.1-.44,.79-.17,1.53-.35,2.27-.54,.9-.21,1.79-.44,2.67-.69,.39-.1,.79-.21,1.16-.33,.59-.17,1.18-.33,1.77-.52,.9-.27,1.77-.56,2.62-.87,.09-.02,.17-.04,.26-.08,.76-.27,1.53-.56,2.27-.85,.66-.25,1.29-.52,1.92-.79,.94-.42,1.86-.83,2.75-1.27,.55-.27,1.07-.54,1.59-.81,.68-.35,1.33-.73,1.97-1.1,.2-.1,.37-.21,.55-.33,.68-.39,1.33-.81,1.99-1.25,.83-.56,1.66-1.14,2.42-1.72,.57-.44,1.09-.85,1.64-1.31,.07-.04,.11-.1,.17-.15-136.3-.02-272.63-.04-408.94,.08Zm0,0c-31.59,.04-33.97-3.61-33.9,16.72,120.93-.02,241.83-.02,362.76-.02,1.64,0,3.25,0,4.83-.02,.87-.02,1.75-.02,2.6-.04,1.2,0,2.4-.02,3.58-.06,1.18-.02,2.34-.04,3.49-.08,3.43-.1,6.75-.25,9.92-.46,2.14-.12,4.19-.27,6.2-.44,3.01-.25,5.88-.54,8.65-.89,.92-.12,1.81-.25,2.71-.37,2.77-.39,5.44-.85,7.97-1.37,.7-.12,1.4-.27,2.1-.44,.79-.17,1.53-.35,2.27-.54,.9-.21,1.79-.44,2.67-.69,.39-.1,.79-.21,1.16-.33,.59-.17,1.18-.33,1.77-.52,.9-.27,1.77-.56,2.62-.87,.09-.02,.17-.04,.26-.08,.76-.27,1.53-.56,2.27-.85,.66-.25,1.29-.52,1.92-.79,.94-.42,1.86-.83,2.75-1.27,.55-.27,1.07-.54,1.59-.81,.68-.35,1.33-.73,1.97-1.1,.2-.1,.37-.21,.55-.33,.68-.39,1.33-.81,1.99-1.25,.83-.56,1.66-1.14,2.42-1.72,.57-.44,1.09-.85,1.64-1.31,.07-.04,.11-.1,.17-.15-136.3-.02-272.63-.04-408.94,.08Zm0,0c-31.59,.04-33.97-3.61-33.9,16.72,120.93-.02,241.83-.02,362.76-.02,1.64,0,3.25,0,4.83-.02,.87-.02,1.75-.02,2.6-.04,1.2,0,2.4-.02,3.58-.06,1.18-.02,2.34-.04,3.49-.08,3.43-.1,6.75-.25,9.92-.46,2.14-.12,4.19-.27,6.2-.44,3.01-.25,5.88-.54,8.65-.89,.92-.12,1.81-.25,2.71-.37,2.77-.39,5.44-.85,7.97-1.37,.7-.12,1.4-.27,2.1-.44,.79-.17,1.53-.35,2.27-.54,.9-.21,1.79-.44,2.67-.69,.39-.1,.79-.21,1.16-.33,.59-.17,1.18-.33,1.77-.52,.9-.27,1.77-.56,2.62-.87,.09-.02,.17-.04,.26-.08,.76-.27,1.53-.56,2.27-.85,.66-.25,1.29-.52,1.92-.79,.94-.42,1.86-.83,2.75-1.27,.55-.27,1.07-.54,1.59-.81,.68-.35,1.33-.73,1.97-1.1,.2-.1,.37-.21,.55-.33,.68-.39,1.33-.81,1.99-1.25,.83-.56,1.66-1.14,2.42-1.72,.57-.44,1.09-.85,1.64-1.31,.07-.04,.11-.1,.17-.15-136.3-.02-272.63-.04-408.94,.08Zm1750.56,790.73c-4.26-100.88-73.83-185.93-177.11-210.15-35.61-8.35-44.19-21.75-43.47-55.25,1.44-66.8,9.28-134.8-18.7-199.52-9.72-22.47,10.11-21.66,24.46-26.32,139.06-45.2,198.93-185.14,130.63-304.69-23.55-41.21-57.51-73.63-103.69-89.14-31.61-10.61-39.71-26.27-33.36-54.96,2.82-12.69,2.75-26.38,1.57-39.4-6.57-72.49,5.33-126.57,75.27-181.47,146.86-115.25,107.65-329.2-64.35-412.66-26.26-12.75-31.35-22.91-22.89-48.91,21.3-65.53,10.27-133.65,11.73-200.68,.48-21.6,3.54-33.29,30.23-39.03,120.69-25.92,193.78-117.99,189.89-235.78-4.59-138.91-39.67-271.86-91.74-400.78-183.18-453.41-536.09-738.45-1003.17-907.93-232.74-84.43-475.34-129.08-722.79-151.56-10.86-.98-25.23,6.65-32.37-8.43h-730.19c-45.98,22.37-97.27,17.76-146.03,24.13-274.9,35.97-539.52,103.73-788.78,221.72-56.23,26.63-66.69,45.88-53.84,103.6v.02c1.77,1.89,3.54,3.7,5.37,5.4,1.2,1.14,2.4,2.24,3.63,3.32,.61,.54,1.22,1.06,1.84,1.56,1.22,1.02,2.45,1.99,3.69,2.95,.63,.48,1.25,.93,1.88,1.39,.42,.31,.83,.6,1.27,.91,.44,.31,.9,.6,1.33,.89,.46,.33,.92,.62,1.38,.91,.87,.56,1.77,1.1,2.64,1.64,1.44,.87,2.88,1.68,4.33,2.43,.48,.27,.98,.52,1.46,.75,.98,.5,1.94,.96,2.93,1.39,.98,.44,1.97,.85,2.95,1.25,.98,.39,1.99,.77,2.99,1.12,.66,.23,1.33,.46,1.99,.66,.35,.12,.68,.23,1,.31,.94,.29,1.9,.56,2.84,.81,.39,.1,.79,.21,1.18,.29,.55,.15,1.09,.27,1.62,.37,1.05,.25,2.14,.46,3.19,.64,.55,.08,1.07,.19,1.62,.25,.79,.12,1.55,.23,2.34,.31,.44,.06,.87,.1,1.33,.15,1.59,.17,3.21,.29,4.83,.33,.96,.04,1.9,.06,2.86,.06s2.01-.02,3.01-.06c.35,0,.7-.02,1.03-.06,.83-.02,1.68-.08,2.51-.15,.39-.02,.76-.06,1.14-.1,.52-.04,1.05-.1,1.57-.17,.63-.06,1.25-.15,1.88-.23,1.57-.21,3.17-.46,4.76-.77,.39-.06,.79-.15,1.18-.23,.39-.06,.79-.15,1.18-.25,.81-.17,1.59-.35,2.4-.54,3.21-.77,6.47-1.7,9.74-2.82,1.92-.66,3.84-1.37,5.79-2.14,.72-.29,1.46-.58,2.18-.89,.72-.29,1.46-.6,2.18-.93,1.46-.62,2.95-1.31,4.43-2.01,403.21-192.02,836.37-242.7,1279.76-244.65,76.87-.35,153.71,1.16,230.21,9.62,253.26,11.13,500.79,51.72,741.53,128.5,263.81,84.14,501.18,210.4,692.4,404.89,217.63,221.34,350.85,481.82,377.44,786.53,7.65,87.63-34.86,126.99-127.57,127.01-505.62,.08-1011.21,.15-1516.83,.15-.13,4.84-.2,9.7-.17,14.56,.09,39.23,.13,78.47,.13,117.72,306.29,0,612.61,.02,918.92,.04,13.81,0,27.63,1.14,41.44,1.74,144.37-.58,288.71-1.02,433.07-1.93,19-.1,32.79,1.47,32.02,25.13-1.64,51.07,1.16,102.37-2.62,153.26-4.24,57.28-23.94,72.03-84.67,71.78-132.07-.56-264.11-1.39-396.16-2.12-16.86,.79-33.75,2.24-50.61,2.24-297.14,.02-594.28,.04-891.42,.06-.02,25.03-.02,50.08-.02,75.12,0,4.61,.2,9.22,.02,13.83-.33,8.47,3.12,12.98,12.74,12.38,6.42-.42,12.93-.02,19.38-.02,220.08,0,440.11-.02,660.14,0,24.44,.02,24.88,.19,22.06,17.82-.72,4.51-1.44,9.01-2.16,13.52,119.42,0,238.84,0,358.26,.02,18.35,0,36.72,1.83,55.09,2.8,113.33-7.39,226.89-7.08,340.04-.54,66.49,3.86,112.43,48.98,122.54,106.82,9.79,56.02-17.06,108-79.84,134.13-127.81,53.19-255.88,48.83-381.35-10.28-78.92-31.61-154.78-69.72-243.75-74.81-1.88-.1-3.76-.21-5.64-.31-3.76-.19-7.49-.35-11.23-.48-3.39-.15-6.75-.25-10.14-.31-2.21-.06-4.43-.1-6.64-.15-5.72-.08-11.42-.1-17.13-.04-1.35,0-2.71,.02-4.06,.04-1.75,.02-3.49,.04-5.24,.08-2.51,.06-5.02,.15-7.54,.23-2.36,.08-4.72,.17-7.06,.29-2.42,.1-4.81,.23-7.21,.37-2.05,.12-4.11,.25-6.16,.4-3.47,.23-6.95,.5-10.4,.81-1.29,.12-2.6,.23-3.89,.37-1.46,.12-2.93,.27-4.39,.44-1.99,.19-3.95,.42-5.92,.64-2.47,.29-4.94,.58-7.4,.91-2.47,.31-4.94,.66-7.38,1.02-2.12,.31-4.22,.62-6.31,.98-.39,.04-.76,.1-1.14,.19-2.14,.33-4.28,.71-6.4,1.08-.94,.17-1.88,.33-2.82,.52-.24,.02-.48,.06-.7,.12-.09,0-.17,.02-.26,.06-1.03,.17-2.05,.35-3.06,.56-2.49,.46-4.98,.98-7.43,1.5-.68,.15-1.35,.27-2.01,.44-.37,.06-.74,.15-1.09,.23-1.77,.37-3.52,.77-5.26,1.18-2.08,.48-4.15,.98-6.23,1.5-2.03,.5-4.04,1.02-6.05,1.56-2.77,.71-5.55,1.48-8.3,2.26-.74,.21-1.46,.42-2.21,.64-1.94,.56-3.87,1.14-5.81,1.74-2.27,.71-4.56,1.41-6.81,2.16-.28,.1-.55,.19-.81,.27-8.52,52.73-16.99,105.49-25.49,158.22,13.11-7.19,26.26-13.65,39.47-19.32,1-.44,2.03-.87,3.04-1.31,8.37-3.53,16.75-6.75,25.19-9.64,1.14-.42,2.32-.81,3.45-1.18,.39-.12,.76-.27,1.16-.39,1.51-.5,3.04-.98,4.54-1.45,1.77-.56,3.52-1.1,5.29-1.64,1.22-.37,2.45-.75,3.67-1.08,.68-.21,1.33-.39,1.99-.58,7.51-2.14,15.05-4.03,22.61-5.65,1.4-.31,2.84-.6,4.24-.87,1.84-.37,3.69-.75,5.55-1.08,1.11-.19,2.21-.39,3.32-.58,1.14-.23,2.27-.42,3.43-.58,.61-.12,1.22-.23,1.83-.31,1.25-.21,2.51-.39,3.78-.56,1.55-.25,3.08-.46,4.63-.66,1.55-.21,3.1-.4,4.65-.58,1.4-.17,2.8-.33,4.19-.48,3.12-.33,6.23-.62,9.35-.85,1.2-.1,2.42-.19,3.63-.25,2.12-.17,4.26-.27,6.38-.37,1.2-.06,2.4-.1,3.6-.15,1.97-.08,3.91-.12,5.88-.15,1.88-.04,3.78-.06,5.68-.06,1.57,0,3.15,.02,4.72,.04,1.57,.02,3.15,.04,4.74,.1,1.57,.04,3.15,.08,4.72,.17,4.13,.17,8.24,.44,12.36,.77,1.27,.1,2.56,.21,3.82,.33l3.8,.37c1.29,.12,2.56,.27,3.82,.42,2.56,.29,5.11,.62,7.67,.98,4.78,.66,9.59,1.43,14.42,2.33,1.59,.29,3.19,.6,4.81,.91,1.29,.25,2.58,.52,3.87,.79,1.29,.25,2.58,.52,3.87,.83,6.44,1.41,12.91,3.03,19.4,4.84,2.6,.73,5.2,1.47,7.8,2.26,1.97,.58,3.91,1.2,5.88,1.83,1.94,.62,3.91,1.27,5.88,1.93,3.93,1.31,7.86,2.7,11.8,4.17,22.35,1.35,40.87,12.61,59.46,22.41,110.29,58.2,228.2,84.39,353.87,75.15,37.66-2.76,50.52,7.1,50.02,44.78-1.51,113.09,.15,113.51-120.05,112.99-115.07-.48-230.12-1.93-345.17-2.95-74.99,.91-149.96,2.66-224.92,2.43-47.42-.12-75.6,18.76-81.24,64.68,13.89,51.53,32.7,66.05,90.98,66.59,127.48,1.23,254.98,1.64,382.46,2.39,124.22-.69,248.45-2.33,372.65-1.6,52.56,.31,87.27,32.48,89.04,76.27,1.79,44.16-33.6,80.96-87.88,83.08-132.35,5.13-257.23,34.62-374.07,94.21-130.95,67.77-260.25,138.66-393.34,202.4-125.89,60.29-255.33,54-383.23-.48-18.57-7.91-37.13-15.81-55.7-23.68-6.42-2.72-12.84-5.44-19.29-8.18-40.26-17.05-80.54-34.04-120.82-51.03-51.4-21.7-102.82-43.37-154.17-65.16-.02,48.14-.02,96.29-.02,144.43,61.4,25.9,122.83,51.76,184.19,77.76,12.3,5.21,24.14,11.4,36.19,17.14-.57,2.35-1.11,4.69-1.68,7.04h-218.7c-.02,44.05-.02,88.11,0,132.18,380.28,0,760.58,.02,1140.85,.04,13.83,0,27.63,1.12,41.44,1.72,119.92-.5,239.87-2.53,359.77-.89,66.95,.91,103.76,42.83,103.69,109.56-.26,339.25-252.84,652.88-596.66,745.64-135.76,36.64-273.46,33.79-411.78,31.01-12.3,.5-24.6,1.43-36.87,1.43-200.15,.02-400.31,.19-600.46,.39v98.45c0,3.86-.07,29.54,.02,33.4h-809.99v-131.44c-273.85-.08-547.73-.54-821.56-1.74-358.11-1.58-619.09-160.2-776.37-467.34-49.78-97.2-71.78-201.84-72.32-310.18-.33-67.96,38.53-106.9,109.07-109.91,9.22-.39,18.48-.17,27.72-.17H1809.73c.02-44.05,.02-88.11,0-132.16-117.56,0-235.15,0-352.71,.04-117.56,.02-235.15,.04-352.71,.08-108.15,.02-216.32,.06-324.47,.12-126.98,.06-253.96,.12-380.93,.23-29.21,.02-42.05-6.36-39.89-36.58,3.01-42.29-.52-85.03,3.21-127.24,6.07-68.66,41.74-98.28,112.36-98.28s144.15,0,216.23,.02c154.02,.02,308.04,.06,462.06,.08,59.09,0,118.2,.02,177.28,.02,37.24,0,74.49,0,111.75-.02,37.24,0,74.49,0,111.75-.02,85.34-.02,170.71-.06,256.07-.12v-132.12c-103.21,.1-206.42,.17-309.66,.19-79.34,.02-158.67,.04-238.01,.04-313.94,0-627.9-.15-941.84-.19-16.91-.02-34.08,.71-50.72-1.6-42.6-5.94-72.41-39.11-72.5-78.55-.07-39.05,29.84-72.18,72.83-78.09,19.68-2.72,39.93-2.37,59.92-2.37,493.34-.06,986.66-.06,1480-.08,.04-18.53-1.16-16.78-26.8-16.78-201.42-.02-402.84,.02-604.28-.02-30.91,0-27.52,2.28-27.52-25.8,0-29.53-.02-59.05,0-88.58H430.74q-68.61,0-69.27-64.53c-.9-90.89-.9-92.09,95.24-91.47,110.55,.73,211.95-28.35,308.94-76.87,127.41-63.72,251.38-59.38,376.63,11.98,2.29,1.31,4.59,2.6,6.9,3.86,.66,.35,1.29,.71,1.94,1.06v-149.02c-.24-.12-.46-.25-.7-.33-1.83-.91-3.65-1.81-5.48-2.68-1.99-.96-4-1.89-6.01-2.82-2.12-1-4.24-1.95-6.36-2.89-4.15-1.83-8.28-3.61-12.43-5.32-2.08-.85-4.15-1.7-6.2-2.49-.94-.39-1.88-.75-2.8-1.1-3.32-1.29-6.62-2.53-9.94-3.7-1.99-.73-3.98-1.43-5.96-2.12-2.01-.71-4.02-1.39-6.03-2.04-1.33-.46-2.64-.87-3.95-1.29-.83-.27-1.68-.54-2.51-.79-3.41-1.08-6.79-2.1-10.2-3.07-.76-.23-1.55-.46-2.34-.66-2.18-.62-4.35-1.2-6.53-1.79-2.34-.62-4.7-1.23-7.06-1.81-1.75-.44-3.49-.85-5.24-1.27-1.55-.37-3.1-.73-4.65-1.06-1.53-.35-3.04-.69-4.57-1-1.81-.39-3.63-.77-5.44-1.12-1.11-.23-2.23-.46-3.32-.64-2.1-.42-4.19-.79-6.27-1.14-1.42-.27-2.82-.52-4.22-.73-.28-.06-.57-.1-.83-.15-.74-.12-1.49-.25-2.21-.35-3.76-.6-7.51-1.14-11.27-1.64-1.42-.19-2.86-.37-4.28-.54-.41-.06-.83-.12-1.22-.15-1.46-.19-2.93-.35-4.37-.5-1.38-.17-2.77-.31-4.15-.44-1.35-.15-2.71-.27-4.08-.39-1.35-.12-2.71-.25-4.08-.35-1.81-.15-3.65-.29-5.48-.42-1.29-.1-2.6-.19-3.91-.25-1.24-.08-2.47-.15-3.71-.21-.83-.06-1.64-.08-2.45-.12-2.4-.1-4.81-.21-7.21-.27-2.12-.06-4.22-.12-6.33-.15-4.72-.08-9.44-.08-14.18,0-2.34,.02-4.7,.08-7.06,.17-2.34,.06-4.7,.15-7.06,.27-1.66,.06-3.32,.15-5,.27-.35,0-.72,.02-1.09,.06-2.53,.15-5.07,.31-7.6,.5-.5,.04-1.03,.08-1.53,.12-2.4,.19-4.78,.39-7.19,.62-2.8,.25-5.59,.54-8.39,.87-3.25,.35-6.53,.75-9.81,1.18-1.05,.15-2.12,.27-3.19,.44-2.16,.29-4.35,.6-6.53,.96-2.18,.33-4.37,.69-6.57,1.04-2.21,.37-4.43,.75-6.66,1.16-1.38,.23-2.75,.5-4.13,.77-1.27,.23-2.53,.46-3.82,.73-2.36,.46-4.74,.93-7.12,1.45-4.22,.89-8.41,1.83-12.6,2.82-.2,.02-.39,.06-.59,.12-1.81,.42-3.63,.87-5.44,1.33-.92,.21-1.86,.46-2.82,.71-1.46,.35-2.95,.75-4.43,1.14-1.11,.29-2.25,.58-3.39,.91-1.7,.44-3.41,.91-5.11,1.39-2.12,.58-4.24,1.18-6.36,1.81-1.4,.42-2.82,.83-4.22,1.27-1.77,.52-3.54,1.06-5.31,1.62-4.11,1.27-8.24,2.6-12.34,3.99-2.36,.79-4.7,1.58-7.06,2.41-4.67,1.62-9.37,3.32-14.07,5.11-2.64,1-5.29,2.02-7.95,3.05-2.03,.79-4.09,1.6-6.12,2.43-2.36,.96-4.7,1.91-7.03,2.89-2.86,1.18-5.74,2.41-8.61,3.66-1.81,.79-3.63,1.58-5.44,2.39-2.34,1.04-4.67,2.1-7.01,3.16-87.05,39.8-174.14,72.74-272.59,72.05-56.23-.4-110.6-8.39-162.34-28.6-67.56-26.38-102.16-81.27-91.66-141.26,10.46-59.86,61.86-101.52,133.31-107.44,15.29-1.27,30.78-.89,46.16-.89,257.91-.02,515.82-.02,773.73-.02v-5.28c0-4.61,.28-9.24,0-13.83-.61-8.89,3.65-12.63,12.87-12.19,6.44,.31,12.93,.04,19.42,.04h594.56c5.66,0,11.4-.44,16.99,.06,12.04,1.1,15.81-4.53,14.85-15.04-.48-5.34-.07-10.76-.07-16.14,0-23.39,0-46.77,.02-70.16-454.11,0-908.24-.02-1362.37-.02-61.64,0-80.06-13.35-84.82-71.91-4.13-50.99-1.62-102.44-3.06-153.63-.55-19.52,8.45-26.29,27.61-24.8,7.65,.6,15.4,.06,23.09,.06,466.52,0,933.03,0,1399.57,.02,0-44.09-.02-88.19-.09-132.26-513.31,0-1026.63-.04-1539.94-.12-100.92-.02-138.14-44.2-126.78-147.47,16.36-180.51,78.03-347.35,170.36-504.5,86.5-147.2,200.42-272.87,337.62-379.4,37.18-28.87,57.49-60.9,31.48-106.05-47.36-33.54-72.46-33.67-114.7-.44C257.37,686.57,67.87,996.39,8.17,1376.36c-6.6,42-10.55,84.28-6.6,126.92,8.8,95.11,81.46,180.2,179.34,199.43,35.54,6.98,39.47,21.04,39.38,49.54-.24,69.95-7.91,140.78,16.4,208.94,9.5,26.59-15.6,24.49-27.81,30.66-128.81,65.05-184.51,201.28-131.89,328.14,22.15,53.4,60.81,95.25,113.24,123.02,24.27,12.86,31.89,28.12,29.75,52.49-1.66,18.92-1.94,38.22-.04,57.08,6.73,67.02,4.67,119.97-76.69,158.49-76.52,36.24-97.66,118.49-82.33,199.37,15.31,80.79,67.06,137.79,149.61,163.5,29.05,9.06,35.52,15.41,24.77,43.93-23.88,63.27-15.53,130.21-14.88,195.78,.24,25.26-7.41,34.08-33.51,40.31-120.86,28.93-191.15,120.65-186.68,238.83,16.67,439.43,315.1,786.18,764.27,885.98,72.02,15.99,145.89,21.21,220.12,21.19,811.8-.23,1623.6,.44,2435.4-.35,482.64-.48,881.24-311.57,969.21-753.9,11.75-59.15,17.32-118.91,14.79-179.06Zm-360.86-232.5c.5,15.95-17.74,12.88-29.34,12.84-144.67-.44-289.34-1.16-434.01-1.81-33.66,.02-67.34,.06-101.01,.1-2.27-.56-4.52-1.14-6.77-1.72,2.36-.64,4.7-1.31,7.06-1.95,29.6-25.03,65.86-38.82,101.11-54.27,124.95-65.26,244.37-140.78,382.85-180.55,31.46-9.04,49.69-2.68,63.37,24.2,33.42,65.65,14.61,135.25,16.73,203.17Zm-1056.01-541.55c.87-.02,1.75-.02,2.6-.04,1.2,0,2.4-.02,3.58-.06,1.18-.02,2.34-.04,3.49-.08,3.43-.1,6.75-.25,9.92-.46,2.14-.12,4.19-.27,6.2-.44,3.01-.25,5.88-.54,8.65-.89,.92-.12,1.81-.25,2.71-.37,2.77-.39,5.44-.85,7.97-1.37,.7-.12,1.4-.27,2.1-.44,.79-.17,1.53-.35,2.27-.54,.9-.21,1.79-.44,2.67-.69,.39-.1,.79-.21,1.16-.33,.59-.17,1.18-.33,1.77-.52,.9-.27,1.77-.56,2.62-.87,.09-.02,.17-.04,.26-.08,.76-.27,1.53-.56,2.27-.85,.66-.25,1.29-.52,1.92-.79,.94-.42,1.86-.83,2.75-1.27,.55-.27,1.07-.54,1.59-.81,.68-.35,1.33-.73,1.97-1.1,.2-.1,.37-.21,.55-.33,.68-.39,1.33-.81,1.99-1.25,.83-.56,1.66-1.14,2.42-1.72,.57-.44,1.09-.85,1.64-1.31,.07-.04,.11-.1,.17-.15-136.3-.02-272.63-.04-408.94,.08-31.59,.04-33.97-3.61-33.9,16.72,120.93-.02,241.83-.02,362.76-.02,1.64,0,3.25,0,4.83-.02Zm-333.68-16.68c-31.59,.04-33.97-3.61-33.9,16.72,120.93-.02,241.83-.02,362.76-.02,1.64,0,3.25,0,4.83-.02,.87-.02,1.75-.02,2.6-.04,1.2,0,2.4-.02,3.58-.06,1.18-.02,2.34-.04,3.49-.08,3.43-.1,6.75-.25,9.92-.46,2.14-.12,4.19-.27,6.2-.44,3.01-.25,5.88-.54,8.65-.89,.92-.12,1.81-.25,2.71-.37,2.77-.39,5.44-.85,7.97-1.37,.7-.12,1.4-.27,2.1-.44,.79-.17,1.53-.35,2.27-.54,.9-.21,1.79-.44,2.67-.69,.39-.1,.79-.21,1.16-.33,.59-.17,1.18-.33,1.77-.52,.9-.27,1.77-.56,2.62-.87,.09-.02,.17-.04,.26-.08,.76-.27,1.53-.56,2.27-.85,.66-.25,1.29-.52,1.92-.79,.94-.42,1.86-.83,2.75-1.27,.55-.27,1.07-.54,1.59-.81,.68-.35,1.33-.73,1.97-1.1,.2-.1,.37-.21,.55-.33,.68-.39,1.33-.81,1.99-1.25,.83-.56,1.66-1.14,2.42-1.72,.57-.44,1.09-.85,1.64-1.31,.07-.04,.11-.1,.17-.15-136.3-.02-272.63-.04-408.94,.08Zm0,0c-31.59,.04-33.97-3.61-33.9,16.72,120.93-.02,241.83-.02,362.76-.02,1.64,0,3.25,0,4.83-.02,.87-.02,1.75-.02,2.6-.04,1.2,0,2.4-.02,3.58-.06,1.18-.02,2.34-.04,3.49-.08,3.43-.1,6.75-.25,9.92-.46,2.14-.12,4.19-.27,6.2-.44,3.01-.25,5.88-.54,8.65-.89,.92-.12,1.81-.25,2.71-.37,2.77-.39,5.44-.85,7.97-1.37,.7-.12,1.4-.27,2.1-.44,.79-.17,1.53-.35,2.27-.54,.9-.21,1.79-.44,2.67-.69,.39-.1,.79-.21,1.16-.33,.59-.17,1.18-.33,1.77-.52,.9-.27,1.77-.56,2.62-.87,.09-.02,.17-.04,.26-.08,.76-.27,1.53-.56,2.27-.85,.66-.25,1.29-.52,1.92-.79,.94-.42,1.86-.83,2.75-1.27,.55-.27,1.07-.54,1.59-.81,.68-.35,1.33-.73,1.97-1.1,.2-.1,.37-.21,.55-.33,.68-.39,1.33-.81,1.99-1.25,.83-.56,1.66-1.14,2.42-1.72,.57-.44,1.09-.85,1.64-1.31,.07-.04,.11-.1,.17-.15-136.3-.02-272.63-.04-408.94,.08Zm0,0c-31.59,.04-33.97-3.61-33.9,16.72,120.93-.02,241.83-.02,362.76-.02,1.64,0,3.25,0,4.83-.02,.87-.02,1.75-.02,2.6-.04,1.2,0,2.4-.02,3.58-.06,1.18-.02,2.34-.04,3.49-.08,3.43-.1,6.75-.25,9.92-.46,2.14-.12,4.19-.27,6.2-.44,3.01-.25,5.88-.54,8.65-.89,.92-.12,1.81-.25,2.71-.37,2.77-.39,5.44-.85,7.97-1.37,.7-.12,1.4-.27,2.1-.44,.79-.17,1.53-.35,2.27-.54,.9-.21,1.79-.44,2.67-.69,.39-.1,.79-.21,1.16-.33,.59-.17,1.18-.33,1.77-.52,.9-.27,1.77-.56,2.62-.87,.09-.02,.17-.04,.26-.08,.76-.27,1.53-.56,2.27-.85,.66-.25,1.29-.52,1.92-.79,.94-.42,1.86-.83,2.75-1.27,.55-.27,1.07-.54,1.59-.81,.68-.35,1.33-.73,1.97-1.1,.2-.1,.37-.21,.55-.33,.68-.39,1.33-.81,1.99-1.25,.83-.56,1.66-1.14,2.42-1.72,.57-.44,1.09-.85,1.64-1.31,.07-.04,.11-.1,.17-.15-136.3-.02-272.63-.04-408.94,.08Zm0,0c-31.59,.04-33.97-3.61-33.9,16.72,120.93-.02,241.83-.02,362.76-.02,1.64,0,3.25,0,4.83-.02,.87-.02,1.75-.02,2.6-.04,1.2,0,2.4-.02,3.58-.06,1.18-.02,2.34-.04,3.49-.08,3.43-.1,6.75-.25,9.92-.46,2.14-.12,4.19-.27,6.2-.44,3.01-.25,5.88-.54,8.65-.89,.92-.12,1.81-.25,2.71-.37,2.77-.39,5.44-.85,7.97-1.37,.7-.12,1.4-.27,2.1-.44,.79-.17,1.53-.35,2.27-.54,.9-.21,1.79-.44,2.67-.69,.39-.1,.79-.21,1.16-.33,.59-.17,1.18-.33,1.77-.52,.9-.27,1.77-.56,2.62-.87,.09-.02,.17-.04,.26-.08,.76-.27,1.53-.56,2.27-.85,.66-.25,1.29-.52,1.92-.79,.94-.42,1.86-.83,2.75-1.27,.55-.27,1.07-.54,1.59-.81,.68-.35,1.33-.73,1.97-1.1,.2-.1,.37-.21,.55-.33,.68-.39,1.33-.81,1.99-1.25,.83-.56,1.66-1.14,2.42-1.72,.57-.44,1.09-.85,1.64-1.31,.07-.04,.11-.1,.17-.15-136.3-.02-272.63-.04-408.94,.08Zm0,0c-31.59,.04-33.97-3.61-33.9,16.72,120.93-.02,241.83-.02,362.76-.02,1.64,0,3.25,0,4.83-.02,.87-.02,1.75-.02,2.6-.04,1.2,0,2.4-.02,3.58-.06,1.18-.02,2.34-.04,3.49-.08,3.43-.1,6.75-.25,9.92-.46,2.14-.12,4.19-.27,6.2-.44,3.01-.25,5.88-.54,8.65-.89,.92-.12,1.81-.25,2.71-.37,2.77-.39,5.44-.85,7.97-1.37,.7-.12,1.4-.27,2.1-.44,.79-.17,1.53-.35,2.27-.54,.9-.21,1.79-.44,2.67-.69,.39-.1,.79-.21,1.16-.33,.59-.17,1.18-.33,1.77-.52,.9-.27,1.77-.56,2.62-.87,.09-.02,.17-.04,.26-.08,.76-.27,1.53-.56,2.27-.85,.66-.25,1.29-.52,1.92-.79,.94-.42,1.86-.83,2.75-1.27,.55-.27,1.07-.54,1.59-.81,.68-.35,1.33-.73,1.97-1.1,.2-.1,.37-.21,.55-.33,.68-.39,1.33-.81,1.99-1.25,.83-.56,1.66-1.14,2.42-1.72,.57-.44,1.09-.85,1.64-1.31,.07-.04,.11-.1,.17-.15-136.3-.02-272.63-.04-408.94,.08Z"/><path class="cls-9" d="M3762.74,1263.24c-12.95,133.47-116.08,196.48-225.97,196.38-298.89-.31-597.78-.52-896.66-.62,2.42-7.44,5.11-14.83,8.04-22.18,41-103.21,119.79-167.28,229.82-198.02,49.87-13.94,101.14-19.77,153.1-19.79,102.75-.06,205.48-.02,308.21-.02,5.66,0,11.34-.21,16.99-.04,8.41,.29,11.6-3.74,11.18-11.32-.2-3.84,.07-7.68,.07-11.53V635.68c0-3.05-.37-6.17,.04-9.2,1.4-10.55-3.17-14.98-14.44-16.3-36.04-4.26-72-9.35-107.93-14.23-87.94-11.94-176.37-19.83-264.9-25.42-85.45-5.38-171.15-9.18-256.84-5.11-130.73,6.21-258.24,28.04-379.38,76.97-209.42,84.55-358.28,226.87-447.16,425.93-41.33,92.59-65.73,189.25-77.72,289.1-4.06,33.79-6.86,67.59-8.32,101.46-510.07,.04-1020.12,.29-1530.17,.71-48.82,.04-94.5-5.34-137.7-26.9,16.36-180.51,78.03-347.35,170.36-504.5,86.5-147.2,200.42-272.87,337.62-379.4,37.18-28.87,57.49-60.9,31.48-106.05,48.76-34.35,99.1-66.34,152.88-93.26,1.77,1.89,3.54,3.7,5.37,5.4,1.18,1.14,2.4,2.26,3.63,3.32,.61,.54,1.22,1.06,1.84,1.56,1.22,1.04,2.47,2.01,3.69,2.95,.63,.48,1.25,.93,1.88,1.39,.42,.31,.83,.6,1.27,.91,.44,.31,.9,.6,1.33,.89,.46,.33,.92,.62,1.38,.91,.87,.58,1.77,1.12,2.64,1.64,1.44,.87,2.88,1.68,4.33,2.43,.48,.27,.98,.52,1.46,.75,.98,.5,1.94,.96,2.93,1.39,.98,.44,1.97,.85,2.95,1.25,.98,.39,1.99,.77,2.99,1.12,.66,.23,1.33,.46,1.99,.66,.35,.12,.68,.23,1,.31,.94,.29,1.9,.56,2.84,.81,.39,.1,.79,.21,1.18,.29,.55,.15,1.09,.27,1.62,.37,1.05,.25,2.14,.46,3.19,.64,.55,.08,1.07,.19,1.62,.25,.79,.12,1.55,.23,2.34,.31,.44,.06,.87,.1,1.33,.15,1.59,.17,3.21,.29,4.83,.33,.96,.04,1.9,.06,2.86,.06s2.01-.02,3.01-.06c.35,0,.7-.02,1.03-.06,.83-.02,1.68-.08,2.51-.15,.39-.02,.76-.06,1.14-.1,.52-.04,1.05-.1,1.57-.17,.63-.06,1.25-.15,1.88-.23,1.57-.21,3.17-.46,4.76-.77,.39-.06,.79-.15,1.18-.23,.39-.06,.79-.15,1.18-.25,.79-.17,1.59-.33,2.4-.54,3.21-.77,6.47-1.7,9.74-2.82,1.92-.66,3.84-1.37,5.79-2.14,.72-.29,1.46-.58,2.18-.89,.72-.29,1.46-.6,2.18-.93,1.46-.62,2.95-1.31,4.43-2.01,403.21-192.02,836.37-242.7,1279.76-244.65,76.87-.35,153.71,1.16,230.21,9.62,5.4,2.43,10.53,5.82,16.21,7.19,171.41,41.27,337.73,95.13,495.24,172.89,175.82,86.8,331.48,196.38,465.34,336.89,150.53,157.98,254.96,338.13,319.27,540.78,7.43,23.43,16.21,48.77,13.91,72.3Z"/><path class="cls-9" d="M1809.73,3479.22c0,188.01,0,376.02-.02,564.03,0,108.44,0,216.88-.02,325.32-273.85-.08-547.73-.54-821.56-1.74-358.11-1.58-619.09-160.2-776.37-467.34-49.78-97.2-71.78-201.84-72.32-310.18-.33-67.96,38.53-106.9,109.07-109.91,9.22-.39,18.48-.17,27.72-.17H1809.73Z"/><path class="cls-9" d="M3801.97,3481.01c-3.43,68.21,1.55,136.19-7.71,204.83-25.25,187.39-109.04,346.92-242.22,483.96-83.01,85.41-186.52,144.81-295.04,196.52-12.3,.5-24.6,1.43-36.87,1.43-200.15,.02-400.31,.19-600.46,.39v-324.9c0-188.01,0-376.02,.02-564.01,380.28,0,760.58,.02,1140.85,.04,13.83,0,27.63,1.12,41.44,1.72Z"/><path class="cls-2" d="M1809.65,1516.07c.04,21.39,.07,42.79,.07,64.2-513.31,0-1026.63-.04-1539.94-.12-100.92-.02-138.14-44.2-126.78-147.47,43.21,21.56,88.88,26.94,137.7,26.9,510.05-.42,1020.1-.66,1530.17-.71-.83,19.05-1.24,38.09-1.22,57.2Z"/><path class="cls-2" d="M4136.57,1580.13c-505.62,.08-1011.21,.15-1516.83,.15,1.09-41.41,7.41-81.9,20.36-121.27,298.89,.1,597.78,.31,896.66,.62,109.9,.1,213.02-62.91,225.97-196.38,2.29-23.53-6.49-48.87-13.91-72.3-64.31-202.65-168.74-382.81-319.27-540.78-133.86-140.51-289.52-250.09-465.34-336.89-157.51-77.76-323.83-131.62-495.24-172.89-5.68-1.37-10.81-4.76-16.21-7.19,253.26,11.13,500.79,51.72,741.53,128.5,263.81,84.14,501.18,210.4,692.4,404.89,217.63,221.34,350.85,481.82,377.44,786.53,7.65,87.63-34.86,126.99-127.57,127.01Z"/><path class="cls-4" d="M1809.78,2792.63c0,2.22-.02,4.74-.02,7.56v153.09c-103.21,.1-206.42,.17-309.66,.19-79.34,.02-158.67,.04-238.01,.04-313.94,0-627.9-.15-941.84-.19-16.91-.02-34.08,.71-50.72-1.6-42.6-5.94-72.41-39.11-72.5-78.55-.07-39.05,29.84-72.18,72.83-78.09,19.68-2.72,39.93-2.37,59.92-2.37,493.34-.06,986.66-.06,1480-.08Z"/><path class="cls-4" d="M3746.51,2794.85c-.09,83.97-.17,167.97-.26,251.96-130.95,67.77-260.25,138.66-393.34,202.4-125.89,60.29-255.33,54-383.23-.48-18.57-7.91-37.13-15.81-55.7-23.68-6.42-2.72-12.84-5.44-19.29-8.18-40.26-17.05-80.54-34.04-120.82-51.03-51.4-21.7-102.82-43.37-154.17-65.16-.02-97.74,0-195.49,0-293.23,0-6-.11-10.86-.13-14.83,120.93-.02,241.83-.02,362.76-.02,1.64,0,3.25,0,4.83-.02,.87-.02,1.75-.02,2.6-.04,1.2,0,2.4-.02,3.58-.06,1.18-.02,2.34-.04,3.49-.08,3.43-.1,6.75-.25,9.92-.46,2.14-.12,4.19-.27,6.2-.44,3.01-.25,5.88-.54,8.65-.89,.92-.12,1.81-.25,2.71-.37,2.77-.39,5.44-.85,7.97-1.37,.72-.12,1.42-.29,2.1-.44,.79-.17,1.53-.35,2.27-.54,.9-.21,1.79-.44,2.67-.69,.39-.1,.79-.21,1.16-.33,.59-.17,1.18-.33,1.77-.52,.9-.27,1.77-.56,2.62-.87,.09-.02,.17-.04,.26-.08,.76-.27,1.53-.56,2.27-.85,.66-.25,1.29-.52,1.92-.79,.94-.42,1.86-.83,2.75-1.27,.55-.27,1.07-.54,1.59-.81,.68-.35,1.33-.73,1.97-1.1,.2-.1,.37-.21,.55-.33,.68-.39,1.33-.81,1.99-1.25,.83-.56,1.66-1.14,2.42-1.72,.57-.44,1.09-.85,1.64-1.31,.07-.04,.11-.1,.17-.15,42.46,.02,84.95,.02,127.41,.02,4.85,0,9.74-.37,14.57,.06,12.45,1.16,17.96-2.33,19.99-15.79,1.73-11.44,3.49-22.91,5.31-34.35,14.46,.02,28.92,.06,43.38,.1,13.89,51.53,32.7,66.05,90.98,66.59,127.48,1.23,254.98,1.64,382.46,2.39Z"/><path class="cls-1" d="M1809.8,1712.54c.02,83.43-.02,166.86-.02,250.28-454.11,0-908.24-.02-1362.37-.02-61.64,0-80.06-13.35-84.82-71.91-4.13-50.99-1.62-102.44-3.06-153.63-.55-19.52,8.45-26.29,27.61-24.8,7.65,.6,15.4,.06,23.09,.06,466.52,0,933.03,0,1399.57,.02Z"/><path class="cls-1" d="M3561.71,1960.47c-16.86,.79-33.75,2.24-50.61,2.24-297.14,.02-594.28,.04-891.42,.06,.02-83.41,.09-166.82,.02-250.21,306.29,0,612.61,.02,918.92,.04,13.81,0,27.63,1.14,41.44,1.74-4.59,82.14,13.67,165.83-18.35,246.12Z"/><path class="cls-10" d="M1151.12,2095.35v201.11c-.24-.12-.46-.25-.7-.33-1.83-.93-3.65-1.81-5.48-2.68-1.99-.98-4-1.91-6.01-2.82-2.12-1-4.24-1.95-6.36-2.89-4.13-1.85-8.28-3.61-12.43-5.32-2.08-.85-4.15-1.7-6.2-2.49-.94-.39-1.88-.75-2.8-1.1-3.32-1.29-6.62-2.53-9.94-3.7-1.99-.75-3.98-1.45-5.96-2.12-2.01-.71-4.02-1.39-6.03-2.04-1.33-.46-2.64-.87-3.95-1.29-.85-.29-1.68-.54-2.51-.79-3.41-1.08-6.79-2.1-10.2-3.07-.76-.23-1.55-.46-2.34-.66-2.18-.62-4.35-1.2-6.53-1.79-2.34-.62-4.7-1.23-7.06-1.81-1.75-.44-3.49-.85-5.24-1.27-1.55-.37-3.1-.73-4.65-1.06-1.53-.35-3.04-.69-4.57-1-1.81-.39-3.63-.77-5.44-1.12-1.11-.23-2.23-.46-3.32-.64-2.1-.42-4.19-.79-6.27-1.14-1.42-.27-2.82-.52-4.22-.73-.28-.06-.57-.1-.83-.15-.74-.12-1.49-.25-2.21-.35-3.76-.6-7.51-1.16-11.27-1.64-1.44-.21-2.86-.39-4.28-.54-.41-.06-.83-.12-1.22-.15-1.46-.19-2.93-.35-4.37-.5-1.38-.17-2.77-.31-4.15-.44-1.35-.17-2.71-.29-4.08-.39-1.35-.12-2.71-.25-4.08-.35-1.81-.17-3.65-.29-5.48-.42-1.29-.1-2.6-.19-3.91-.25-1.24-.08-2.47-.15-3.71-.21-.83-.06-1.64-.08-2.45-.12-2.4-.1-4.81-.21-7.21-.27-2.12-.06-4.22-.12-6.33-.15-4.72-.08-9.44-.08-14.18,0-2.34,.02-4.7,.08-7.06,.17-2.34,.06-4.7,.15-7.06,.27-1.66,.06-3.32,.15-5,.27-.35,0-.72,.02-1.09,.06-2.53,.12-5.07,.31-7.6,.5-.5,.04-1.03,.08-1.53,.12-2.4,.19-4.78,.39-7.19,.62-2.8,.25-5.59,.54-8.39,.87-3.25,.35-6.53,.75-9.81,1.18-1.05,.15-2.12,.27-3.19,.44-2.16,.29-4.35,.6-6.53,.96-2.18,.33-4.37,.69-6.57,1.04-2.21,.37-4.43,.75-6.66,1.16-1.38,.23-2.75,.5-4.13,.77-1.27,.23-2.53,.46-3.82,.73-2.36,.46-4.74,.93-7.12,1.45-4.19,.87-8.41,1.81-12.6,2.82-.2,.02-.39,.06-.59,.12-1.81,.42-3.63,.87-5.44,1.33-.92,.21-1.86,.46-2.82,.71-1.46,.35-2.95,.75-4.43,1.14-1.11,.29-2.25,.58-3.39,.91-1.7,.44-3.41,.91-5.11,1.39-2.12,.58-4.24,1.18-6.36,1.81-1.4,.42-2.82,.83-4.22,1.27-1.77,.52-3.54,1.06-5.31,1.62-4.11,1.27-8.24,2.6-12.34,3.99-2.36,.79-4.7,1.58-7.06,2.41-4.7,1.64-9.39,3.34-14.07,5.11-2.64,1-5.29,2.02-7.95,3.05-2.03,.79-4.09,1.6-6.12,2.43-2.36,.96-4.7,1.91-7.03,2.89-2.86,1.18-5.74,2.41-8.61,3.66-1.81,.79-3.63,1.58-5.44,2.39-2.34,1.04-4.67,2.1-7.01,3.16-87.05,39.8-174.14,72.74-272.59,72.05-56.23-.4-110.6-8.39-162.34-28.6-67.56-26.38-102.16-81.27-91.66-141.26,10.46-59.86,61.86-101.52,133.31-107.44,15.29-1.27,30.78-.89,46.16-.89,257.91-.02,515.82-.02,773.73-.02Z"/><path class="cls-10" d="M3746.57,2328.38c-78.92-31.61-154.78-69.72-243.75-74.81-1.88-.1-3.76-.21-5.64-.31-3.76-.19-7.49-.35-11.23-.48-3.39-.15-6.75-.25-10.14-.31-2.21-.06-4.43-.1-6.64-.15-5.72-.08-11.42-.1-17.13-.04-1.35,0-2.71,.02-4.06,.04-1.75,.02-3.49,.04-5.24,.08-2.51,.06-5.02,.15-7.54,.23-2.36,.08-4.72,.17-7.06,.29-2.42,.1-4.81,.23-7.21,.37-2.05,.12-4.11,.25-6.16,.4-3.47,.23-6.95,.5-10.4,.81-1.29,.12-2.6,.23-3.89,.37-1.46,.12-2.93,.27-4.39,.44-1.99,.19-3.95,.42-5.92,.64-2.47,.29-4.94,.58-7.4,.91-2.47,.31-4.94,.66-7.38,1.02-2.12,.31-4.22,.62-6.31,.98-.39,.04-.76,.1-1.14,.19-2.14,.33-4.28,.71-6.4,1.08-.94,.17-1.88,.33-2.82,.52-.24,.02-.48,.06-.7,.12-.09,0-.17,.02-.26,.06-1.03,.17-2.05,.35-3.06,.56-2.49,.46-4.98,.98-7.43,1.5-.68,.15-1.35,.27-2.01,.44-.37,.06-.74,.15-1.09,.23-1.77,.37-3.52,.77-5.26,1.18-2.08,.48-4.15,.98-6.23,1.5-2.03,.5-4.04,1-6.05,1.56-2.77,.71-5.55,1.48-8.3,2.26-.74,.21-1.46,.42-2.21,.64-1.94,.56-3.87,1.14-5.81,1.74-2.27,.71-4.56,1.41-6.81,2.16-.28,.1-.55,.19-.81,.27,1.55-9.7,3.12-19.42,4.7-29.12,8.1-50.12,16.4-100.19,24.42-150.33,119.42,0,238.84,0,358.26,.02,18.35,0,36.72,1.83,55.09,2.8,.48,76.7,.94,153.43,1.4,230.13Z"/><path class="cls-11" d="M1151.17,2661.45H430.74q-68.61,0-69.27-64.53c-.9-90.89-.9-92.09,95.24-91.47,110.55,.73,211.95-28.35,308.94-76.87,127.41-63.72,251.38-59.38,376.63,11.98,2.29,1.31,4.59,2.6,6.9,3.86,.63,.35,1.29,.71,1.94,1.04v.02c0,71.99,0,143.98,.04,215.96Z"/><path class="cls-11" d="M3581.11,2406.39c-.63,84.14-1.24,168.26-1.88,252.37-74.99,.91-149.96,2.66-224.92,2.43-47.42-.12-75.6,18.76-81.24,64.68-14.46-.04-28.92-.08-43.38-.1,10.22-65.22,21.3-130.33,31.85-195.51,5.24-32.38,10.48-64.78,15.68-97.16,13.11-7.19,26.26-13.65,39.47-19.32,1-.44,2.03-.87,3.04-1.31,8.37-3.53,16.75-6.75,25.19-9.64,1.14-.42,2.32-.81,3.45-1.18,.39-.12,.76-.27,1.16-.39,1.51-.5,3.04-.98,4.54-1.45,1.77-.56,3.52-1.1,5.29-1.64,1.22-.37,2.45-.75,3.67-1.08,.68-.21,1.33-.39,1.99-.58,7.51-2.14,15.05-4.03,22.61-5.65,1.42-.31,2.82-.6,4.24-.87,1.84-.37,3.69-.75,5.55-1.08,1.11-.19,2.21-.39,3.32-.58,1.14-.23,2.27-.42,3.43-.58,.61-.12,1.22-.23,1.83-.31,1.25-.21,2.51-.39,3.78-.56,1.55-.25,3.08-.46,4.63-.66,1.55-.21,3.1-.4,4.65-.58,1.4-.17,2.8-.33,4.19-.48,3.12-.33,6.23-.62,9.35-.85,1.2-.1,2.42-.19,3.63-.25,2.12-.17,4.26-.27,6.38-.37,1.2-.06,2.4-.1,3.6-.15,1.97-.08,3.91-.12,5.88-.15,1.88-.04,3.78-.06,5.68-.06,1.57,0,3.15,.02,4.72,.04,1.57,.02,3.15,.04,4.74,.1,1.57,.04,3.15,.08,4.72,.17,4.13,.17,8.24,.44,12.36,.77,1.27,.1,2.56,.21,3.82,.33l3.8,.37c1.29,.12,2.56,.27,3.82,.42,2.56,.29,5.11,.62,7.67,.98,4.78,.66,9.59,1.43,14.42,2.33,1.59,.29,3.19,.6,4.81,.91,1.29,.25,2.58,.52,3.87,.79,1.29,.27,2.58,.54,3.87,.83,6.44,1.41,12.91,3.03,19.4,4.84,2.6,.73,5.2,1.47,7.8,2.26,1.97,.58,3.91,1.2,5.88,1.83,1.94,.62,3.91,1.27,5.88,1.93,3.93,1.31,7.86,2.7,11.8,4.17Z"/><path class="cls-7" d="M1809.76,3085.4c0,87.23,0,174.45-.02,261.66-117.56,0-235.15,0-352.71,.04-117.56,.02-235.15,.04-352.71,.08-108.15,.02-216.32,.06-324.47,.12-126.98,.06-253.96,.12-380.93,.23-29.21,.02-42.05-6.36-39.89-36.58,3.01-42.29-.52-85.03,3.21-127.24,6.07-68.66,41.74-98.28,112.36-98.28s144.15,0,216.23,.02c154.02,.02,308.04,.06,462.06,.08,96.33,0,192.68,.02,289.04,0,37.24,0,74.49,0,111.75-.02,85.34-.02,170.71-.06,256.07-.12Z"/><path class="cls-7" d="M2840.06,3340.02c-.57,2.35-1.11,4.69-1.68,7.04h-218.7c-.02-33.98-.02-67.96,0-101.94,61.4,25.9,122.83,51.76,184.19,77.76,12.3,5.21,24.14,11.4,36.19,17.14Z"/><path class="cls-3" d="M3256.98,4366.33c108.52-51.72,212.05-111.13,295.05-196.53,133.18-137.03,216.97-296.57,242.23-483.95,9.25-68.64,4.29-136.63,7.72-204.84,119.92-.5,239.87-2.54,359.76-.89,66.95,.92,103.76,42.83,103.71,109.57-.28,339.24-252.84,652.86-596.67,745.63-135.76,36.63-273.46,33.79-411.79,31.01Z"/><path class="cls-12" d="M3746.58,2328.38c-.47-76.71-.93-153.41-1.4-230.12,113.33-7.41,226.88-7.1,340.03-.54,66.51,3.85,112.45,48.98,122.55,106.82,9.78,56.01-17.06,108-79.83,134.12-127.81,53.2-255.89,48.84-381.34-10.28Z"/><path class="cls-8" d="M3561.71,1960.48c32.02-80.3,13.76-163.98,18.35-246.13,144.36-.58,288.72-1.03,433.08-1.93,19.01-.12,32.78,1.47,32.02,25.13-1.64,51.08,1.16,102.38-2.61,153.27-4.25,57.28-23.96,72.02-84.69,71.77-132.05-.55-264.1-1.38-396.15-2.1Z"/><path class="cls-14" d="M3579.23,2658.77c.63-84.12,1.25-168.24,1.88-252.37,22.35,1.34,40.86,12.6,59.45,22.4,110.29,58.19,228.21,84.4,353.88,75.16,37.65-2.77,50.52,7.09,50.02,44.76-1.52,113.1,.15,113.52-120.07,113-115.06-.49-230.11-1.93-345.16-2.96Z"/><path class="cls-6" d="M3746.24,3046.81c.09-83.99,.18-167.98,.27-251.96,124.22-.68,248.44-2.31,372.65-1.59,52.56,.31,87.27,32.47,89.04,76.26,1.79,44.15-33.6,80.97-87.89,83.08-132.34,5.14-257.23,34.64-374.07,94.21Z"/><path class="cls-13" d="M3580.22,3287.33c124.93-65.27,244.36-140.79,382.86-180.56,31.44-9.03,49.69-2.67,63.35,24.19,33.41,65.67,14.62,135.26,16.74,203.17,.5,15.96-17.74,12.88-29.34,12.84-144.67-.44-289.35-1.16-434.02-1.82,.13-19.28,.27-38.55,.4-57.83Z"/><path class="cls-7" d="M3580.22,3287.33c-.13,19.28-.27,38.55-.4,57.83-33.67,.04-67.34,.08-101.01,.12,0,0,.3-3.69,.3-3.69,29.6-25.01,65.85-38.8,101.12-54.26Z"/><path class="cls-13" d="M3479.1,3341.59s-.29,3.69-.3,3.69c-2.26-.57-4.51-1.14-6.77-1.72,2.36-.66,4.71-1.31,7.07-1.97Z"/></g></g></svg>